<svg version="1" xmlns="http://www.w3.org/2000/svg" width="346.667" height="346.667" viewBox="0 0 260.000000 260.000000"><path d="M66.5 6.9c-13.3 5.4-34.9 19.8-45.7 30.5C11.4 46.7 2 62.6 2 69.2c0 3.2 3.5 8.6 6.5 10 2 .9 3.2.8 6.3-.6 8.9-4 14.6-12.2 15.7-22.6.3-3 1-6.9 1.6-8.7 4.9-15.5 42.2-19.9 50.5-6 1.6 2.9 1.8 5.6 1.9 26 .1 12.5-.2 23.2-.5 23.7s-3.3 1.1-6.7 1.4c-8 .7-13.8 3.5-21.5 10.4-13.2 11.7-13.4 15.2-1.2 18.7 15.4 4.4 22.1 12.6 26.3 31.9 1.9 8.5 2.3 27.2.7 33.6-.3 1.4-1 4.8-1.5 7.7-2.3 12.2-5.6 15.5-13.5 13.3-2.5-.7-5.6-1-7-.6-1.3.3-7.4 5.4-13.5 11.4-9.7 9.4-11.1 11.2-11.1 14 0 5 3.2 7.2 20.2 14 21 8.3 21.8 8.5 34.3 8.6 8.9.1 12.2-.3 17.2-2.1 13.3-4.8 23.9-12.7 30.9-23 1.8-2.7 2.1-3.9 1.3-6.1-1.8-5.1-4-5.5-12.3-2.2-9 3.6-14.9 3.8-26.7.9-8.6-2.1-12.9-4.1-12.9-6 0-.6 2.2-3.4 4.8-6.2 15.6-16.8 20.6-27.7 21.7-47.6.6-10.6 2.2-18.8 3.7-19.7 1.4-.9 5.4 3.2 9.4 9.4 1.9 2.9 3.4 5.5 3.4 5.7 0 .3 2.5 4.8 5.5 10 3 5.3 5.5 9.8 5.5 10.1 0 .2 1 2.1 2.3 4.2 1.3 2 4.5 7.7 7.2 12.7 26.9 50.3 31.1 56.6 40.4 60.8 10.2 4.5 19.5.2 36.8-17.2 13.6-13.6 14.9-16.7 8.8-20.7-2.6-1.7-2.7-1.6-7.3 1.6-2.5 1.8-6.2 3.5-8.2 3.7-3.1.4-4.3 0-7.3-2.7-5.1-4.4-10.4-12.8-18.8-29.3-4-7.8-10-19.2-13.5-25.3-3.4-6-8.3-15.3-10.8-20.5-5.8-12.1-11.5-21-17.7-27.6-2.7-2.8-4.9-6-4.9-7.1 0-1.2 5.7-7.4 14.8-15.9 8.1-7.7 18.8-18 23.7-22.7 11.5-11.2 13.6-12.4 28-17.6 6.6-2.3 15.5-6.1 19.8-8.3 13.5-6.9 24.7-19.2 24.7-27 0-4.3-1.9-5.7-7.9-5.7-4.7 0-8.7 3-12.4 9.3-6.6 11.1-9.7 12-39.2 12.2-24.7.1-28.2.7-34.5 5.3-6.4 4.8-17 16.6-17 19 0 5.9 3.7 7.6 10.5 4.8 6.1-2.6 12.1-2.4 13 .4 1.2 3.6-.5 5.8-11.3 14.7-5.9 4.9-17.6 14.6-26 21.6-8.4 7-15.7 12.5-16.2 12.2-.5-.3-.7-17.2-.4-38.2.5-44.1-.4-40.9 11.4-41.8 6.2-.4 10.5-1.1 14-2 .3-.1 1.9-.5 3.5-1 4.5-1.1 19.6-9.2 25.1-13.4 6.3-4.8 7-6.1 5.3-9.7-1.9-4-7.8-4.5-14.6-1.2-4.3 2.1-6.2 2.3-18.3 2.3-22.3-.1-44.9-1.6-53.5-3.5-7.9-1.8-16.5-1.1-24 1.9z"/><path d="M53.3 44.6c-12 5.9-8.3 25 4.9 25.6 8.1.4 13.7-4.1 14.6-11.8 1.2-11.2-9.5-18.7-19.5-13.8zM172.5 118.5c-3.2 3.1-3.2 7.5-.2 11 5.7 6.7 16.8.1 13.7-8.1-2.3-5.8-9.2-7.3-13.5-2.9zM187.9 149.4c-1.8 3.8-.4 7.3 3 8.1 3.8.8 6.7-.7 7.5-4.1.9-3.6-1.7-6.4-6.1-6.4-2.6 0-3.6.6-4.4 2.4zM200.1 173.3c-2 2.5-2 5.4-.1 7.2 4.1 3.7 10.1-.6 7.7-5.5-1.4-2.9-5.8-3.8-7.6-1.7z"/></svg>